<svg width="1200" height="1200" xmlns="http://www.w3.org/2000/svg" xmlns:xlink="http://www.w3.org/1999/xlink" version="1.1"><g transform="scale(1.004709347947794) translate(59.66876355144713, 125.33762953016503)">                        <g fill="#39e991"><g xmlns="http://www.w3.org/2000/svg">    <path d="M537.5,12.5l-10.9-6.2L1.7,925c-2.2,3.9-2.2,8.6,0,12.5c2.2,3.9,6.3,6.2,10.8,6.2h1050c4.5,0,8.6-2.4,10.8-6.2   s2.3-8.6,0-12.5L548.4,6.3C546.1,2.4,542,0,537.5,0c-4.5,0-8.6,2.4-10.9,6.3L537.5,12.5l-10.9,6.2l514.3,900H34l514.3-900   L537.5,12.5l-10.9,6.2L537.5,12.5z"/>    <path d="M537.5,177.9l-10.9-6.2L143,843c-2.2,3.9-2.2,8.6,0,12.5c2.2,3.9,6.3,6.2,10.8,6.2h767.3c4.5,0,8.6-2.4,10.8-6.2   c2.2-3.9,2.3-8.6,0-12.5L548.4,171.7c-2.2-3.9-6.4-6.3-10.9-6.3s-8.6,2.4-10.9,6.3L537.5,177.9l-10.9,6.2l373,652.7H175.4   l373-652.7L537.5,177.9l-10.9,6.2L537.5,177.9z M537.5,343.2l-10.9,6.2l231.6,405.3H316.8l231.6-405.3L537.5,343.2l-10.9,6.2   L537.5,343.2l-10.9-6.2L284.4,761c-2.2,3.9-2.2,8.6,0,12.5s6.3,6.2,10.8,6.2h484.6c4.5,0,8.6-2.4,10.8-6.2s2.3-8.6,0-12.5   L548.4,337c-2.2-3.9-6.4-6.3-10.9-6.3c-4.5,0-8.6,2.4-10.9,6.3L537.5,343.2z"/>    <path d="M436.6,685.2l10.9,6.2l90.1-157.7l79.4,139l-180.3,0V685.2l10.9,6.2L436.6,685.2v12.5h201.9c4.5,0,8.6-2.4,10.8-6.2   c2.2-3.9,2.3-8.6,0-12.5L548.4,502.3c-2.2-3.9-6.4-6.3-10.9-6.3s-8.6,2.4-10.9,6.3L425.7,679c-2.2,3.9-2.2,8.6,0,12.5   c2.2,3.9,6.3,6.2,10.8,6.2V685.2z"/></g></g>        </g></svg>